<?xml version="1.0" standalone="no"?>
<!DOCTYPE svg PUBLIC "-//W3C//DTD SVG 20010904//EN"
        "http://www.w3.org/TR/2001/REC-SVG-20010904/DTD/svg10.dtd">
<svg version="1.0" xmlns="http://www.w3.org/2000/svg"
     width="500.000000pt" height="500.000000pt" viewBox="0 0 500.000000 500.000000"
     preserveAspectRatio="xMidYMid meet">
    <metadata>
        Created by potrace 1.14, written by Peter Selinger 2001-2017
    </metadata>
    <g transform="translate(0.000000,500.000000) scale(0.100000,-0.100000)"
       fill="#000000" stroke="none">
        <path d="M2320 3815 c-30 -8 -63 -19 -72 -25 -10 -5 -24 -10 -32 -10 -8 0 -16
-3 -18 -7 -1 -5 -23 -19 -48 -33 -25 -13 -49 -28 -55 -32 -5 -5 -35 -27 -65
-51 -50 -38 -83 -71 -205 -201 -180 -191 -313 -336 -365 -396 -22 -25 -176
-194 -232 -254 -27 -27 -48 -55 -48 -61 0 -6 30 -40 68 -74 111 -104 394 -374
419 -400 30 -32 28 -75 -4 -79 -17 -3 -47 22 -123 97 -56 56 -103 101 -104
101 -2 0 -47 43 -102 95 -54 53 -125 120 -156 150 l-56 55 -56 -58 c-31 -31
-56 -63 -56 -70 0 -7 55 -65 121 -130 67 -64 217 -211 333 -325 477 -470 635
-624 682 -665 150 -132 369 -166 599 -94 34 10 117 51 125 61 3 3 24 19 48 35
39 26 116 107 252 261 57 64 182 205 215 241 11 12 52 57 90 100 93 103 108
119 168 184 29 31 63 68 76 82 l23 27 -142 138 c-79 76 -166 161 -194 188 -29
28 -66 61 -83 75 -52 43 -55 102 -5 97 18 -1 56 -31 122 -97 53 -52 118 -116
146 -142 27 -26 82 -81 123 -123 41 -41 82 -75 92 -75 9 0 24 10 32 23 8 13
30 39 49 59 19 19 37 42 41 51 4 11 -33 55 -129 149 -75 73 -344 341 -599 595
-255 254 -473 464 -484 468 -12 3 -21 11 -21 16 0 5 -7 9 -15 9 -8 0 -15 4
-15 8 0 4 -28 16 -62 26 -84 25 -208 30 -278 11z m125 -820 c22 -3 76 -14 120
-25 44 -10 100 -21 125 -26 71 -12 201 -52 214 -65 6 -5 16 -9 24 -9 7 0 33
-14 56 -31 70 -50 79 -116 35 -259 -27 -88 -113 -264 -183 -378 -93 -150 -142
-170 -341 -141 -135 19 -282 54 -429 101 -86 27 -105 37 -152 83 -63 62 -71
89 -55 170 25 120 185 413 281 514 70 73 151 91 305 66z"/>
    </g>
</svg>
